<svg xmlns="http://www.w3.org/2000/svg" width="718" height="172" viewBox="0 0 718 172" role="img" aria-label="deel — 이 컴퓨터 안에서만">
  <title>deel — 이 컴퓨터 안에서만</title>
  <rect x="110" y="26" width="28" height="14" fill="#166534"/>
  <rect x="110" y="40" width="28" height="14" fill="#166534"/>
  <rect x="40" y="54" width="98" height="14" fill="#166534"/>
  <rect x="26" y="68" width="28" height="14" fill="#166534"/>
  <rect x="110" y="68" width="28" height="14" fill="#166534"/>
  <rect x="26" y="82" width="28" height="14" fill="#166534"/>
  <rect x="110" y="82" width="28" height="14" fill="#166534"/>
  <rect x="26" y="96" width="28" height="14" fill="#166534"/>
  <rect x="110" y="96" width="28" height="14" fill="#166534"/>
  <rect x="40" y="110" width="98" height="14" fill="#166534"/>
  <rect x="166" y="54" width="84" height="14" fill="#15803d"/>
  <rect x="152" y="68" width="28" height="14" fill="#15803d"/>
  <rect x="236" y="68" width="28" height="14" fill="#15803d"/>
  <rect x="152" y="82" width="112" height="14" fill="#15803d"/>
  <rect x="152" y="96" width="28" height="14" fill="#15803d"/>
  <rect x="166" y="110" width="84" height="14" fill="#15803d"/>
  <rect x="292" y="54" width="84" height="14" fill="#16a34a"/>
  <rect x="278" y="68" width="28" height="14" fill="#16a34a"/>
  <rect x="362" y="68" width="28" height="14" fill="#16a34a"/>
  <rect x="278" y="82" width="112" height="14" fill="#16a34a"/>
  <rect x="278" y="96" width="28" height="14" fill="#16a34a"/>
  <rect x="292" y="110" width="84" height="14" fill="#16a34a"/>
  <rect x="404" y="26" width="28" height="14" fill="#22c55e"/>
  <rect x="404" y="40" width="28" height="14" fill="#22c55e"/>
  <rect x="404" y="54" width="28" height="14" fill="#22c55e"/>
  <rect x="404" y="68" width="28" height="14" fill="#22c55e"/>
  <rect x="404" y="82" width="28" height="14" fill="#22c55e"/>
  <rect x="404" y="96" width="28" height="14" fill="#22c55e"/>
  <rect x="418" y="110" width="56" height="14" fill="#22c55e"/>
  <path d="M 26 137 L 26 142 Q 26 146 30 146 L 470 146 Q 474 146 474 142 L 474 137" fill="none" stroke="#16a34a" stroke-width="2.5" stroke-linecap="round"/>
  <text x="492" y="147" fill="#16a34a" font-family="'Pretendard','Apple SD Gothic Neo','Malgun Gothic','Noto Sans KR',sans-serif" font-size="17" dominant-baseline="middle">⌂</text>
  <text x="516" y="147" fill="#57606a" font-family="'Pretendard','Apple SD Gothic Neo','Malgun Gothic','Noto Sans KR',sans-serif" font-size="16" dominant-baseline="middle">이 컴퓨터 안에서만</text>
</svg>
